<svg xmlns="http://www.w3.org/2000/svg" xmlns:xlink="http://www.w3.org/1999/xlink" width="500" zoomAndPan="magnify" viewBox="0 0 375 374.999991" height="500" preserveAspectRatio="xMidYMid meet" version="1.0"><defs><g/><clipPath id="5ca572b2be"><path d="M 187.5 0 C 83.945312 0 0 83.945312 0 187.5 C 0 291.054688 83.945312 375 187.5 375 C 291.054688 375 375 291.054688 375 187.5 C 375 83.945312 291.054688 0 187.5 0 Z M 187.5 0 " clip-rule="nonzero"/></clipPath><clipPath id="79da55efda"><path d="M 64 70.195312 L 179 70.195312 L 179 144 L 64 144 Z M 64 70.195312 " clip-rule="nonzero"/></clipPath><clipPath id="31ec1ba235"><path d="M 37.5 192 L 340.597656 192 L 340.597656 282.472656 L 37.5 282.472656 Z M 37.5 192 " clip-rule="nonzero"/></clipPath></defs><g clip-path="url(#5ca572b2be)"><rect x="-37.5" width="450" fill="#2482c2" y="-37.499999" height="449.999989" fill-opacity="1"/></g><path fill="#ffffff" d="M 184.675781 187.28125 C 189.992188 187.542969 195.441406 187.894531 201.023438 188.289062 L 201.023438 178.960938 L 184.675781 178.960938 Z M 184.675781 187.28125 " fill-opacity="1" fill-rule="nonzero"/><path fill="#ffffff" d="M 184.675781 156.148438 L 201.023438 156.148438 L 201.023438 172.4375 L 184.675781 172.4375 Z M 184.675781 156.148438 " fill-opacity="1" fill-rule="nonzero"/><path fill="#ffffff" d="M 208.097656 188.8125 C 213.414062 189.25 218.863281 189.734375 224.445312 190.257812 L 224.445312 178.960938 L 208.097656 178.960938 Z M 208.097656 188.8125 " fill-opacity="1" fill-rule="nonzero"/><g clip-path="url(#79da55efda)"><path fill="#ffffff" d="M 110.414062 121.382812 L 135.109375 134.035156 L 178.085938 112.011719 C 171.140625 87.839844 148.820312 70.195312 122.324219 70.195312 C 90.289062 70.195312 64.316406 96.074219 64.316406 128.039062 C 64.316406 133.554688 65.109375 138.851562 66.515625 143.886719 Z M 110.414062 121.382812 " fill-opacity="1" fill-rule="nonzero"/></g><path fill="#ffffff" d="M 62.121094 201.160156 L 62.121094 162.980469 L 110.414062 138.195312 L 158.707031 162.980469 L 158.707031 186.449219 C 161.914062 186.492188 165.167969 186.535156 168.460938 186.625 L 168.460938 157.023438 L 151.675781 148.441406 L 204.496094 121.339844 L 260.828125 150.238281 L 260.828125 194.375 C 261.925781 194.503906 262.980469 194.636719 264.082031 194.8125 L 264.082031 148.265625 L 204.496094 117.703125 L 148.117188 146.601562 L 145.742188 145.375 L 204.496094 115.25 L 266.277344 146.953125 L 266.277344 195.074219 C 269.484375 195.511719 272.738281 195.949219 276.035156 196.386719 L 276.035156 141.042969 L 204.582031 104.347656 L 135.152344 139.949219 L 110.457031 127.292969 L 52.410156 157.066406 L 52.410156 206.632812 C 55.308594 204.664062 58.5625 202.824219 62.121094 201.160156 Z M 62.121094 201.160156 " fill-opacity="1" fill-rule="nonzero"/><path fill="#ffffff" d="M 113.050781 166.480469 L 125.046875 166.480469 L 125.046875 178.4375 L 113.050781 178.4375 Z M 113.050781 166.480469 " fill-opacity="1" fill-rule="nonzero"/><path fill="#ffffff" d="M 208.097656 156.148438 L 224.445312 156.148438 L 224.445312 172.4375 L 208.097656 172.4375 Z M 208.097656 156.148438 " fill-opacity="1" fill-rule="nonzero"/><path fill="#ffffff" d="M 110.414062 140.648438 L 64.273438 164.292969 L 64.273438 200.152344 C 65.328125 199.671875 66.425781 199.234375 67.527344 198.796875 L 67.527344 166.261719 L 110.414062 144.28125 L 153.300781 166.261719 L 153.300781 186.449219 C 153.609375 186.449219 153.960938 186.449219 154.269531 186.449219 C 155.015625 186.449219 155.804688 186.449219 156.554688 186.449219 L 156.554688 164.292969 Z M 110.414062 140.648438 " fill-opacity="1" fill-rule="nonzero"/><path fill="#ffffff" d="M 113.050781 188.507812 C 116.917969 188.070312 120.917969 187.71875 125.046875 187.414062 L 125.046875 183.253906 L 113.050781 183.253906 Z M 113.050781 188.507812 " fill-opacity="1" fill-rule="nonzero"/><path fill="#ffffff" d="M 95.824219 166.480469 L 107.820312 166.480469 L 107.820312 178.4375 L 95.824219 178.4375 Z M 95.824219 166.480469 " fill-opacity="1" fill-rule="nonzero"/><path fill="#ffffff" d="M 95.824219 190.957031 C 99.648438 190.257812 103.691406 189.644531 107.820312 189.121094 L 107.820312 183.253906 L 95.824219 183.253906 Z M 95.824219 190.957031 " fill-opacity="1" fill-rule="nonzero"/><g clip-path="url(#31ec1ba235)"><path fill="#ffffff" d="M 52.367188 282.472656 C 52.367188 282.472656 -61.179688 141.480469 340.539062 213.332031 C 340.539062 213.332031 34.171875 174.976562 52.367188 282.472656 Z M 52.367188 282.472656 " fill-opacity="1" fill-rule="nonzero"/></g><path fill="#ffffff" d="M 79.125 241.75 C 79.125 241.75 117.003906 199.542969 280.867188 216.441406 C 280.867188 216.441406 154.355469 208.035156 79.125 241.75 Z M 79.125 241.75 " fill-opacity="1" fill-rule="nonzero"/><g fill="#ffffff" fill-opacity="1"><g transform="translate(76.395917, 280.197811)"><g><path d="M 17.859375 0 L 14.09375 -7.15625 L 9 -7.15625 L 9 0 L 2.546875 0 L 2.546875 -25.421875 L 13.90625 -25.421875 C 17.269531 -25.421875 19.867188 -24.648438 21.703125 -23.109375 C 23.546875 -21.578125 24.46875 -19.394531 24.46875 -16.5625 C 24.46875 -12.632812 22.929688 -9.910156 19.859375 -8.390625 L 25.203125 0 Z M 9 -12.234375 L 13.90625 -12.234375 C 15.3125 -12.234375 16.398438 -12.582031 17.171875 -13.28125 C 17.953125 -13.988281 18.34375 -15.007812 18.34375 -16.34375 C 18.34375 -17.644531 17.953125 -18.632812 17.171875 -19.3125 C 16.398438 -19.988281 15.3125 -20.328125 13.90625 -20.328125 L 9 -20.328125 Z M 9 -12.234375 "/></g></g></g><g fill="#ffffff" fill-opacity="1"><g transform="translate(104.394652, 280.197811)"><g><path d="M 22.4375 -20.328125 L 9 -20.328125 L 9 -15.28125 L 21.140625 -15.28125 L 21.140625 -10.203125 L 9 -10.203125 L 9 -5.078125 L 22.84375 -5.078125 L 22.84375 0 L 2.546875 0 L 2.546875 -25.421875 L 22.4375 -25.421875 Z M 22.4375 -20.328125 "/></g></g></g><g fill="#ffffff" fill-opacity="1"><g transform="translate(130.577685, 280.197811)"><g><path d="M 19.421875 -4.6875 L 8.3125 -4.6875 L 6.46875 0 L -0.1875 0 L 10.78125 -25.421875 L 17.4375 -25.421875 L 28.140625 0 L 21.25 0 Z M 17.53125 -9.59375 L 13.90625 -18.984375 L 10.203125 -9.59375 Z M 17.53125 -9.59375 "/></g></g></g><g fill="#ffffff" fill-opacity="1"><g transform="translate(160.246883, 280.197811)"><g><path d="M 9 -5.40625 L 19.796875 -5.40625 L 19.796875 0 L 2.546875 0 L 2.546875 -25.421875 L 9 -25.421875 Z M 9 -5.40625 "/></g></g></g><g fill="#ffffff" fill-opacity="1"><g transform="translate(182.290103, 280.197811)"><g/></g></g><g fill="#ffffff" fill-opacity="1"><g transform="translate(192.422261, 280.197811)"><g><path d="M 22.4375 -20.328125 L 9 -20.328125 L 9 -15.28125 L 21.140625 -15.28125 L 21.140625 -10.203125 L 9 -10.203125 L 9 -5.078125 L 22.84375 -5.078125 L 22.84375 0 L 2.546875 0 L 2.546875 -25.421875 L 22.4375 -25.421875 Z M 22.4375 -20.328125 "/></g></g></g><g fill="#ffffff" fill-opacity="1"><g transform="translate(218.6053, 280.197811)"><g><path d="M 12.3125 -25.703125 C 16.113281 -25.703125 19.453125 -24.757812 22.328125 -22.875 L 19.90625 -17.828125 C 18.570312 -18.597656 17.140625 -19.234375 15.609375 -19.734375 C 14.085938 -20.234375 12.804688 -20.484375 11.765625 -20.484375 C 9.898438 -20.484375 8.96875 -19.863281 8.96875 -18.625 C 8.96875 -17.832031 9.425781 -17.191406 10.34375 -16.703125 C 11.269531 -16.222656 12.390625 -15.804688 13.703125 -15.453125 C 15.023438 -15.097656 16.34375 -14.671875 17.65625 -14.171875 C 18.976562 -13.679688 20.097656 -12.878906 21.015625 -11.765625 C 21.941406 -10.648438 22.40625 -9.242188 22.40625 -7.546875 C 22.40625 -5.109375 21.445312 -3.203125 19.53125 -1.828125 C 17.625 -0.460938 15.191406 0.21875 12.234375 0.21875 C 10.128906 0.21875 8.046875 -0.140625 5.984375 -0.859375 C 3.929688 -1.585938 2.144531 -2.582031 0.625 -3.84375 L 3.125 -8.828125 C 4.40625 -7.710938 5.914062 -6.796875 7.65625 -6.078125 C 9.40625 -5.367188 10.957031 -5.015625 12.3125 -5.015625 C 13.351562 -5.015625 14.160156 -5.203125 14.734375 -5.578125 C 15.316406 -5.953125 15.609375 -6.5 15.609375 -7.21875 C 15.609375 -7.925781 15.273438 -8.515625 14.609375 -8.984375 C 13.953125 -9.460938 13.125 -9.816406 12.125 -10.046875 C 11.132812 -10.273438 10.054688 -10.582031 8.890625 -10.96875 C 7.734375 -11.351562 6.65625 -11.773438 5.65625 -12.234375 C 4.664062 -12.691406 3.835938 -13.421875 3.171875 -14.421875 C 2.503906 -15.429688 2.171875 -16.640625 2.171875 -18.046875 C 2.171875 -20.367188 3.097656 -22.222656 4.953125 -23.609375 C 6.804688 -25.003906 9.257812 -25.703125 12.3125 -25.703125 Z M 12.3125 -25.703125 "/></g></g></g><g fill="#ffffff" fill-opacity="1"><g transform="translate(243.698906, 280.197811)"><g><path d="M 21.96875 -20.21875 L 14.3125 -20.21875 L 14.3125 0 L 7.84375 0 L 7.84375 -20.21875 L 0.25 -20.21875 L 0.25 -25.453125 L 21.96875 -25.453125 Z M 21.96875 -20.21875 "/></g></g></g><g fill="#ffffff" fill-opacity="1"><g transform="translate(267.594143, 280.197811)"><g><path d="M 19.421875 -4.6875 L 8.3125 -4.6875 L 6.46875 0 L -0.1875 0 L 10.78125 -25.421875 L 17.4375 -25.421875 L 28.140625 0 L 21.25 0 Z M 17.53125 -9.59375 L 13.90625 -18.984375 L 10.203125 -9.59375 Z M 17.53125 -9.59375 "/></g></g></g><g fill="#ffffff" fill-opacity="1"><g transform="translate(297.263337, 280.197811)"><g><path d="M 21.96875 -20.21875 L 14.3125 -20.21875 L 14.3125 0 L 7.84375 0 L 7.84375 -20.21875 L 0.25 -20.21875 L 0.25 -25.453125 L 21.96875 -25.453125 Z M 21.96875 -20.21875 "/></g></g></g><g fill="#ffffff" fill-opacity="1"><g transform="translate(321.158573, 280.197811)"><g><path d="M 22.4375 -20.328125 L 9 -20.328125 L 9 -15.28125 L 21.140625 -15.28125 L 21.140625 -10.203125 L 9 -10.203125 L 9 -5.078125 L 22.84375 -5.078125 L 22.84375 0 L 2.546875 0 L 2.546875 -25.421875 L 22.4375 -25.421875 Z M 22.4375 -20.328125 "/></g></g></g></svg>